<svg width="142" height="142" viewBox="0 0 142 142" fill="none" xmlns="http://www.w3.org/2000/svg">
<path d="M71 11C37.863 11 11 37.863 11 71C11 104.137 37.863 131 71 131C104.137 131 131 104.137 131 71C131 37.863 104.137 11 71 11ZM71 1C109.66 1 141 32.34 141 71C141 109.66 109.66 141 71 141C32.34 141 1 109.66 1 71C1 32.34 32.34 1 71 1Z" fill="#505458" stroke="#505458"/>
<path d="M50.6364 47.4545H57.0909L70 69.1818H70.5455L83.4545 47.4545H89.9091L73.0909 74.8182V94H67.4545V74.8182L50.6364 47.4545Z" fill="#505458"/>
</svg>
